<?xml version="1.0" encoding="UTF-8" standalone="no"?>
<!-- Created with Inkscape (http://www.inkscape.org/) -->

<svg
   width="1024.0px"
   height="1024.0px"
   viewBox="0 0 1024.0 1024.0"
   version="1.1"
   id="SVGRoot"
   sodipodi:docname="logo.svg"
   xml:space="preserve"
   inkscape:version="1.2.2 (b0a8486541, 2022-12-01)"
   xmlns:inkscape="http://www.inkscape.org/namespaces/inkscape"
   xmlns:sodipodi="http://sodipodi.sourceforge.net/DTD/sodipodi-0.dtd"
   xmlns="http://www.w3.org/2000/svg"
   xmlns:svg="http://www.w3.org/2000/svg"><sodipodi:namedview
     id="namedview691"
     pagecolor="#ffffff"
     bordercolor="#000000"
     borderopacity="0.25"
     inkscape:showpageshadow="2"
     inkscape:pageopacity="0.0"
     inkscape:pagecheckerboard="0"
     inkscape:deskcolor="#d1d1d1"
     inkscape:document-units="px"
     showgrid="false"
     inkscape:zoom="0.23130182"
     inkscape:cx="-1145.6892"
     inkscape:cy="1258.0965"
     inkscape:window-width="1900"
     inkscape:window-height="1012"
     inkscape:window-x="10"
     inkscape:window-y="21"
     inkscape:window-maximized="0"
     inkscape:current-layer="g2432"
     showguides="true"><inkscape:grid
       type="xygrid"
       id="grid814" /></sodipodi:namedview><defs
     id="defs686"><marker
       markerWidth="1.05"
       markerHeight="0.99999994"
       refX="0"
       refY="0"
       orient="auto-start-reverse"
       id="marker2519"
       viewBox="0 0 1.05 1"
       inkscape:stockid="pin"
       style="overflow:visible"
       preserveAspectRatio="xMidYMid"
       inkscape:isstock="true"
       inkscape:collect="always"><path
         id="path2517"
         style="fill:context-stroke;stroke-linecap:butt"
         d="M 0,-1 H 2 L 1,0 2,1 H 0 L -0.1,0 Z"
         sodipodi:nodetypes="sssssscsss"
         transform="scale(0.5)" /></marker><marker
       markerWidth="0.52499998"
       markerHeight="0.99999994"
       refX="0"
       refY="0"
       orient="auto-start-reverse"
       id="CapTriangle"
       viewBox="0 0 0.525 1"
       inkscape:stockid="pin"
       style="overflow:visible"
       preserveAspectRatio="xMidYMid"
       inkscape:isstock="true"
       inkscape:collect="always"><path
         id="path7813"
         style="fill:context-stroke;stroke-linecap:butt"
         d="M 0,-1 1,0 0,1 -0.05,0 Z"
         sodipodi:nodetypes="sssssscsss"
         transform="scale(0.5)" /></marker><rect
       x="-1696.8091"
       y="1531.0682"
       width="1654.9775"
       height="512.53277"
       id="rect2373" /><marker
       markerWidth="0.52499998"
       markerHeight="0.99999994"
       refX="0"
       refY="0"
       orient="auto-start-reverse"
       id="marker1824"
       viewBox="0 0 0.525 1"
       inkscape:stockid="pin"
       style="overflow:visible"
       preserveAspectRatio="xMidYMid"
       inkscape:isstock="true"
       inkscape:collect="always"><path
         id="path1822"
         style="fill:context-stroke;stroke-linecap:butt"
         d="M 0,-1 1,0 0,1 -0.05,0 Z"
         sodipodi:nodetypes="sssssscsss"
         transform="scale(0.5)" /></marker><marker
       markerWidth="1.05"
       markerHeight="0.99999994"
       refX="0"
       refY="0"
       orient="auto-start-reverse"
       id="CapRibbon1"
       viewBox="0 0 1.05 1"
       inkscape:stockid="pin"
       style="overflow:visible"
       preserveAspectRatio="xMidYMid"
       inkscape:isstock="true"
       inkscape:collect="always"><path
         id="path56643"
         style="fill:context-stroke;stroke-linecap:butt"
         d="M 0,-1 H 2 L 1,0 2,1 H 0 L -0.1,0 Z"
         sodipodi:nodetypes="sssssscsss"
         transform="scale(0.5)" /></marker><inkscape:perspective
       sodipodi:type="inkscape:persp3d"
       inkscape:vp_x="3.4369287 : -60.35832 : 1"
       inkscape:vp_y="0 : 1000 : 0"
       inkscape:vp_z="1027.4369 : -60.35832 : 1"
       inkscape:persp3d-origin="515.43693 : -231.02499 : 1"
       id="perspective983" /></defs><g
     inkscape:label="Layer 1"
     inkscape:groupmode="layer"
     id="layer1"><g
       id="g2281"><path
         id="path1086"
         style="fill:#c49b6c;stroke:#000000;stroke-width:37.79527559;stroke-linecap:round;stroke-linejoin:round;stroke-dasharray:none;stroke-opacity:1;fill-opacity:1"
         d="M 511.99999,776.5581 512,983.11782 M 103.99999,276.44108 282.88596,379.72094 M 920,276.44109 741.11403,379.72095 M 920,747.55891 512,983.11782 103.99999,747.55891 V 276.44108 L 512,40.882174 920,276.44109 Z" /><path
         style="fill:#000000;stroke-width:1"
         d="m 576.11997,683.82594 c -6.1999,-15.64099 -17.37155,-43.84059 -24.82586,-62.6656 -7.45434,-18.825 -17.60588,-44.42608 -22.55897,-56.89128 -4.95311,-12.46521 -10.64071,-26.92088 -12.63912,-32.12372 -1.99842,-5.20283 -3.89883,-9.46968 -4.22318,-9.48188 -0.32432,-0.0118 -3.47113,4.24467 -6.99291,9.4597 -29.42405,43.57101 -41.10983,60.80514 -54.41367,80.24909 -8.70232,12.71868 -32.30495,47.64463 -44.20848,65.4175 l -9.42795,14.0767 -39.08385,0.031 c -21.49613,0.0163 -39.08386,-0.14042 -39.08386,-0.34884 0,-0.20871 6.93578,-11.13598 15.41285,-24.28279 8.47704,-13.14696 20.02876,-31.07748 25.67046,-39.84586 24.9633,-38.79791 31.99634,-49.68384 40.79937,-63.15035 5.15517,-7.88615 14.12936,-21.75282 19.94266,-30.81483 16.36566,-25.51137 30.19317,-46.92301 40.43734,-62.61641 13.45531,-20.61264 17.77455,-27.64864 17.76139,-28.93309 -0.0133,-1.33425 -20.78363,-65.25036 -21.40567,-65.87239 -0.23351,-0.23352 -12.16126,-0.46038 -26.50611,-0.50413 l -26.08156,-0.0795 v -31.86073 -31.86069 h 49.84544 c 46.67049,0 49.87632,0.10317 50.33015,1.61885 0.26656,0.89037 2.97574,7.86303 6.02036,15.49478 3.04463,7.63177 9.90396,24.9073 15.24295,38.39007 5.33898,13.48277 20.33053,51.15591 33.31454,83.71807 29.12396,73.03897 66.10346,166.02693 69.66566,175.17994 1.45957,3.7504 3.14239,7.00633 3.73959,7.23547 1.09274,0.41933 5.41841,-0.81923 35.91528,-10.28382 9.14098,-2.83689 17.12628,-5.15796 17.74509,-5.15796 0.61883,0 1.39187,0.93663 1.71788,2.0814 0.32602,1.14475 4.3087,13.59645 8.85042,27.67025 4.54173,14.07403 8.25769,25.99149 8.25769,26.48341 0,1.19949 -6.94304,3.69189 -26.36426,9.46423 -3.05271,0.90727 -15.95732,4.98864 -28.67691,9.06972 -41.83502,13.42263 -61.40625,19.58726 -62.16072,19.57987 -0.40892,0 -5.81612,-12.80448 -12.01604,-28.44561 z"
         id="path328" /><path
         style="fill:#bc7f4b;fill-opacity:1;stroke:#000000;stroke-width:45.35433071;stroke-linecap:butt;stroke-linejoin:round;stroke-dasharray:none;stroke-opacity:1;marker-start:url(#CapRibbon1);marker-end:url(#marker1824)"
         d="M 627.05681,837.03667 839.35771,716.46469"
         id="path1185"
         sodipodi:nodetypes="cc" /></g><g
       id="g2432"><g
         id="g2313"
         transform="translate(5e-6,1265.9474)" /><g
         id="g3082"
         inkscape:export-filename="full_logo.png"
         inkscape:export-xdpi="97.956123"
         inkscape:export-ydpi="97.956123"><path
           id="path2307"
           style="fill:#fed3b6;fill-opacity:1;stroke:#000000;stroke-width:37.7953;stroke-linecap:round;stroke-linejoin:round;stroke-dasharray:none;stroke-opacity:1"
           d="M 511.99999,776.5581 512,983.11782 M 103.99999,276.44108 282.88596,379.72094 M 920,276.44109 741.11403,379.72095 M 920,747.55891 512,983.11782 103.99999,747.55891 V 276.44108 L 512,40.882174 920,276.44109 Z"
           transform="translate(5e-6,1265.9474)" /><path
           style="fill:#000000;stroke-width:1"
           d="m 576.11997,683.82594 c -6.1999,-15.64099 -17.37155,-43.84059 -24.82586,-62.6656 -7.45434,-18.825 -17.60588,-44.42608 -22.55897,-56.89128 -4.95311,-12.46521 -10.64071,-26.92088 -12.63912,-32.12372 -1.99842,-5.20283 -3.89883,-9.46968 -4.22318,-9.48188 -0.32432,-0.0118 -3.47113,4.24467 -6.99291,9.4597 -29.42405,43.57101 -41.10983,60.80514 -54.41367,80.24909 -8.70232,12.71868 -32.30495,47.64463 -44.20848,65.4175 l -9.42795,14.0767 -39.08385,0.031 c -21.49613,0.0163 -39.08386,-0.14042 -39.08386,-0.34884 0,-0.20871 6.93578,-11.13598 15.41285,-24.28279 8.47704,-13.14696 20.02876,-31.07748 25.67046,-39.84586 24.9633,-38.79791 31.99634,-49.68384 40.79937,-63.15035 5.15517,-7.88615 14.12936,-21.75282 19.94266,-30.81483 16.36566,-25.51137 30.19317,-46.92301 40.43734,-62.61641 13.45531,-20.61264 17.77455,-27.64864 17.76139,-28.93309 -0.0133,-1.33425 -20.78363,-65.25036 -21.40567,-65.87239 -0.23351,-0.23352 -12.16126,-0.46038 -26.50611,-0.50413 l -26.08156,-0.0795 v -31.86073 -31.86069 h 49.84544 c 46.67049,0 49.87632,0.10317 50.33015,1.61885 0.26656,0.89037 2.97574,7.86303 6.02036,15.49478 3.04463,7.63177 9.90396,24.9073 15.24295,38.39007 5.33898,13.48277 20.33053,51.15591 33.31454,83.71807 29.12396,73.03897 66.10346,166.02693 69.66566,175.17994 1.45957,3.7504 3.14239,7.00633 3.73959,7.23547 1.09274,0.41933 5.41841,-0.81923 35.91528,-10.28382 9.14098,-2.83689 17.12628,-5.15796 17.74509,-5.15796 0.61883,0 1.39187,0.93663 1.71788,2.0814 0.32602,1.14475 4.3087,13.59645 8.85042,27.67025 4.54173,14.07403 8.25769,25.99149 8.25769,26.48341 0,1.19949 -6.94304,3.69189 -26.36426,9.46423 -3.05271,0.90727 -15.95732,4.98864 -28.67691,9.06972 -41.83502,13.42263 -61.40625,19.58726 -62.16072,19.57987 -0.40892,0 -5.81612,-12.80448 -12.01604,-28.44561 z"
           id="path2309"
           transform="translate(5e-6,1265.9474)" /><path
           style="fill:#bc7f4b;fill-opacity:1;stroke:#000000;stroke-width:45.3543;stroke-linecap:butt;stroke-linejoin:round;stroke-dasharray:none;stroke-opacity:1;marker-start:url(#CapRibbon1);marker-end:url(#marker1824)"
           d="M 624.24082,820.0424 836.54172,699.47042"
           id="path2311"
           sodipodi:nodetypes="cc"
           transform="translate(5e-6,1265.9474)" /><g
           aria-label="Call"
           transform="matrix(21.011637,0,0,21.011637,34273.321,-30690.798)"
           id="text2371"
           style="font-size:26.6667px;font-family:'JetBrainsMono Nerd Font';-inkscape-font-specification:'JetBrainsMono Nerd Font';white-space:pre;shape-inside:url(#rect2373);display:inline;stroke-width:2.15853;stroke-linejoin:round"><path
             d="m -1688.7019,1555.2745 c -1.7778,0 -3.1823,-0.4978 -4.2134,-1.4934 -1.0311,-0.9955 -1.5466,-2.3644 -1.5466,-4.1067 v -8.8 c 0,-1.7422 0.5155,-3.1111 1.5466,-4.1066 1.0311,-0.9956 2.4356,-1.4934 4.2134,-1.4934 1.7422,0 3.1289,0.5067 4.16,1.52 1.0311,0.9956 1.5467,2.3556 1.5467,4.08 l -1.2,-0.6663 -1.2,0.6663 c 0,-1.1022 -0.2933,-1.9466 -0.88,-2.5333 -0.5689,-0.6045 -1.3778,-0.9067 -2.4267,-0.9067 -1.0489,0 -1.8756,0.2933 -2.48,0.88 -0.5867,0.5867 -0.88,1.4311 -0.88,2.5334 v 8.8266 c 0,1.1023 0.2933,1.9556 0.88,2.56 0.6044,0.5867 1.4311,0.88 2.48,0.88 1.0489,0 1.8578,-0.2933 2.4267,-0.88 0.5867,-0.6044 0.88,-1.4577 0.88,-2.56 l 1.2,-0.6663 1.2,0.6663 c 0,1.7245 -0.5156,3.0934 -1.5467,4.1067 -1.0311,0.9956 -2.4178,1.4934 -4.16,1.4934 z"
             style="stroke-width:0.102753;stroke-dasharray:none;marker-start:url(#marker2519);marker-end:url(#CapTriangle)"
             id="path2446"
             sodipodi:nodetypes="sssssscccccscsscscccccs" /><path
             d="m -1674.0886,1555.2745 q -2.32,0 -3.6533,-1.1734 -1.3333,-1.2 -1.3333,-3.2267 0,-2.0533 1.3333,-3.2266 1.3333,-1.1734 3.6,-1.1734 h 4.5334 v -1.4666 q 0,-1.3334 -0.8534,-2.08 -0.8533,-0.7467 -2.2933,-0.7467 -1.3867,0 -2.2134,0.64 -0.8266,0.6133 -0.96,1.3867 h -2.4 q 0.16,-1.2267 0.9067,-2.1334 0.7733,-0.9333 2,-1.4666 1.2267,-0.5334 2.7467,-0.5334 2.5333,0 4,1.3067 1.4667,1.3067 1.4667,3.5467 v 10.08 h -2.3467 v -2.8 h -0.027 q -0.16,1.4133 -1.3867,2.24 -1.2,0.8267 -3.12,0.8267 z m 0.5867,-1.8934 q 1.7067,0 2.8,-0.8533 1.0934,-0.8534 1.0934,-2.1867 v -2.08 h -4.4801 q -1.2,0 -1.8933,0.6667 -0.6933,0.6666 -0.6933,1.8133 0,1.2267 0.8266,1.9467 0.8534,0.6933 2.3467,0.6933 z"
             style="stroke-width:0.10275258;stroke-dasharray:none;marker-end:"
             id="path2448" /><path
             d="m -1638.6752,1555.0078 c -1.2977,0 -2.3377,-0.3733 -3.12,-1.12 -0.7644,-0.7645 -1.1466,-1.7689 -1.1466,-3.0134 v -13.1466 h -5.0667 l 0.6663,-1.0933 -0.6663,-1.0934 h 7.4667 v 15.3333 c 0,0.6045 0.1689,1.0845 0.5066,1.44 0.3378,0.3378 0.7911,0.5067 1.36,0.5067 h 4.5334 l 0.6663,1.0934 -0.6663,1.0933 z"
             style="stroke-width:0.102753;stroke-dasharray:none;marker-start:url(#marker2519);marker-end:url(#CapTriangle)"
             id="path2452"
             sodipodi:nodetypes="scscccccscscccs" /><path
             d="m -1654.6753,1555.0078 c -1.2977,0 -2.3377,-0.3733 -3.12,-1.12 -0.7644,-0.7645 -1.1466,-1.7689 -1.1466,-3.0134 v -13.1466 h -5.0667 l 0.6663,-1.0933 -0.6663,-1.0934 h 7.4667 v 15.3333 c 0,0.6045 0.1689,1.0845 0.5066,1.44 0.3378,0.3378 0.7911,0.5067 1.36,0.5067 h 4.5334 l 0.6663,1.0934 -0.6663,1.0933 z"
             style="stroke-width:0.102753;stroke-dasharray:none;marker-start:url(#marker2519);marker-end:url(#CapTriangle)"
             id="path2703"
             sodipodi:nodetypes="scscccccscscccs" /></g></g></g></g></svg>
