<?xml version="1.0" encoding="UTF-8" standalone="no"?>
<!-- Created with Inkscape (http://www.inkscape.org/) -->

<svg
   width="1024.0px"
   height="1024.0px"
   viewBox="0 0 1024.0 1024.0"
   version="1.1"
   id="SVGRoot"
   sodipodi:docname="logo.svg"
   xml:space="preserve"
   inkscape:version="1.2.2 (b0a8486541, 2022-12-01)"
   xmlns:inkscape="http://www.inkscape.org/namespaces/inkscape"
   xmlns:sodipodi="http://sodipodi.sourceforge.net/DTD/sodipodi-0.dtd"
   xmlns="http://www.w3.org/2000/svg"
   xmlns:svg="http://www.w3.org/2000/svg"><sodipodi:namedview
     id="namedview691"
     pagecolor="#ffffff"
     bordercolor="#000000"
     borderopacity="0.25"
     inkscape:showpageshadow="2"
     inkscape:pageopacity="0.0"
     inkscape:pagecheckerboard="0"
     inkscape:deskcolor="#d1d1d1"
     inkscape:document-units="px"
     showgrid="true"
     inkscape:zoom="0.81817603"
     inkscape:cx="323.89118"
     inkscape:cy="334.89126"
     inkscape:window-width="1900"
     inkscape:window-height="1012"
     inkscape:window-x="10"
     inkscape:window-y="21"
     inkscape:window-maximized="0"
     inkscape:current-layer="layer1"><inkscape:grid
       type="xygrid"
       id="grid814" /></sodipodi:namedview><defs
     id="defs686"><inkscape:perspective
       sodipodi:type="inkscape:persp3d"
       inkscape:vp_x="3.4369287 : -60.35832 : 1"
       inkscape:vp_y="0 : 1000 : 0"
       inkscape:vp_z="1027.4369 : -60.35832 : 1"
       inkscape:persp3d-origin="515.43693 : -231.02499 : 1"
       id="perspective983" /></defs><g
     inkscape:label="Layer 1"
     inkscape:groupmode="layer"
     id="layer1"><path
       sodipodi:type="star"
       style="fill:none;stroke-width:21.52653978;stroke-linecap:round;stroke-linejoin:round;stroke:#000000;stroke-opacity:1;stroke-dasharray:none"
       id="path1260"
       inkscape:flatsided="true"
       sodipodi:sides="6"
       sodipodi:cx="240"
       sodipodi:cy="240"
       sodipodi:r1="536.65631"
       sodipodi:r2="464.758"
       sodipodi:arg1="0.52359878"
       sodipodi:arg2="1.0471976"
       inkscape:rounded="0"
       inkscape:randomized="0"
       d="M 704.758,508.32816 240,776.65631 -224.758,508.32815 l 0,-536.656308 L 240,-296.65631 704.758,-28.328153 Z"
       transform="matrix(0.87787624,0,0,0.87787624,301.3097,301.3097)" /><g
       id="g1750"
       transform="translate(828.12427,-140.47307)"><path
         style="fill:#000000;stroke-width:1"
         d="m -353.71377,783.51338 c -12.73404,-25.3268 -19.91262,-49.1524 -21.17262,-70.2717 -3.07323,-51.5115 16.72547,-96.11496 61.34304,-138.19657 23.71852,-22.37042 39.69262,-34.45935 42.20894,-31.94303 1.43649,1.43649 -1.62304,5.19322 -10.06443,12.35784 -37.68913,31.98864 -65.87266,91.08276 -74.41761,156.03596 -3.16695,24.0731 -1.22577,43.068 6.79556,66.4961 3.65794,10.6837 5.90354,19.8868 4.99025,20.4513 -0.9133,0.5644 -5.2707,-6.154 -9.68313,-14.9299 z m 151.13926,14.1342 c -0.57782,-0.9349 8.02186,-10.9315 19.11042,-22.2147 27.33131,-27.811 42.22419,-54.9526 55.63281,-101.3882 13.17601,-45.6299 13.89619,-77.91225 2.48191,-111.25019 -4.99725,-14.59555 -6.12755,-20.03873 -4.30631,-20.73761 2.80692,-1.07712 17.63881,30.87503 24.62098,53.0407 6.112177,19.40378 7.395677,50.3833 2.99144,72.2046 -6.97883,34.5775 -22.1072,60.4179 -54.27471,92.7054 -22.15885,22.2415 -44.52516,40.4415 -46.25654,37.64 z m -103.77777,-61.4739 c -4.92446,-4.9245 -5.07335,-12.18 -0.33791,-16.4655 4.80792,-4.3511 8.59014,-4.1158 15.00969,0.9338 4.23189,3.3288 6.2449,3.7863 9.7112,2.2069 4.75011,-2.1643 16.56027,-16.8344 27.39534,-34.0294 l 6.83815,-10.852 -3.61114,-12.8251 c -8.58115,-30.4764 -12.73244,-35.5157 -29.25714,-35.5157 -6.58092,0 -7.99036,-0.6723 -7.99036,-3.8116 0,-3.1581 2.62155,-4.371 15.29147,-7.0749 8.4103,-1.79482 16.68275,-3.63942 18.38322,-4.0991 5.30347,-1.4337 12.33914,8.5811 17.76949,25.2936 l 5.21847,16.0604 9.3964,-14.2628 c 15.7479,-23.90381 32.85469,-33.55048 42.46102,-23.94415 4.73049,4.73045 5.06418,11.33745 0.87467,17.31875 -3.6296,5.182 -9.02989,5.5968 -15.72791,1.2081 -7.84781,-5.1421 -13.77325,-2.1105 -24.62502,12.5985 -5.38421,7.2981 -9.80289,14.7665 -9.81927,16.5964 -0.0535,5.9706 11.86095,53.551 14.07853,56.223 3.88111,4.6765 9.09832,2.7557 17.04895,-6.2767 4.29856,-4.8834 8.36953,-8.8789 9.04661,-8.8789 6.24689,0 -13.93443,25.1611 -24.60874,30.681 -14.09382,7.2882 -19.73573,1.3195 -26.58217,-28.1217 l -5.24941,-22.5737 -9.51034,14.8438 c -21.38729,33.3814 -39.9711,45.9997 -51.2038,34.767 z"
         id="path1735"
         sodipodi:nodetypes="ssssssssssssssssssssssscsssssscssssssssssscss" /><path
         style="fill:#000000;stroke-width:1"
         d="m -531.59494,829.19233 c -13.47098,-1.51028 -25.56833,-9.35882 -30.94757,-20.07822 -1.89811,-3.78243 -2.71177,-7.16679 -2.71424,-11.28977 -10e-4,-2.42069 0.0488,-2.82292 0.53586,-4.29262 0.7589,-2.28982 1.6286,-3.92693 2.9758,-5.60161 1.47757,-1.83672 2.76681,-2.97883 4.57553,-4.0534 2.26208,-1.34389 3.63274,-1.69161 6.58203,-1.66971 4.97827,0.037 8.23467,1.18595 10.93072,3.85674 3.00999,2.98181 4.84387,6.4466 7.18408,13.57304 1.9494,5.93637 3.80015,9.25392 6.6868,11.98638 1.86781,1.76804 3.58182,2.72459 5.93849,3.31417 2.41605,0.60442 7.47085,0.60513 9.66526,0.002 4.19301,-1.15373 7.67989,-4.21998 9.91606,-8.71986 2.55909,-5.14974 4.5711,-14.1115 5.3755,-23.9433 0.99569,-12.16985 1.0571,-18.4992 1.05918,-109.17569 l 0.002,-83.32515 h -16.69353 -16.69353 v -6.67741 -6.67741 h 16.67016 16.67015 l 0.0994,-9.96842 c 0.10266,-10.29678 0.28557,-13.52219 1.10627,-19.50732 0.80517,-5.87189 1.86435,-10.37517 3.7918,-16.12145 3.63831,-10.84688 7.88399,-18.46191 14.48543,-25.98102 4.97367,-5.66507 10.02741,-9.60931 17.54785,-13.69539 6.89916,-3.74852 16.2106,-7.01333 23.11274,-8.10386 6.27945,-0.99215 13.73537,-1.24175 18.31519,-0.61313 6.4099,0.8798 13.4923,3.1056 19.3072,6.0677 5.04016,2.56745 9.5163,5.71373 12.85073,9.03279 4.41764,4.39729 7.02014,8.85062 7.80608,13.35759 0.71494,4.09974 -0.0454,7.64332 -2.41407,11.25147 -1.97481,3.00813 -5.11542,5.51502 -8.34727,6.66292 -1.53147,0.54395 -1.80887,0.58079 -4.40085,0.5844 -3.07137,0.004 -4.29546,-0.23421 -6.42937,-1.25263 -1.49609,-0.71402 -4.05974,-2.83605 -6.26919,-5.18924 -1.85161,-1.97208 -5.79791,-7.12744 -8.42721,-11.00914 -4.30868,-6.36101 -8.07264,-10.08915 -12.98507,-12.86148 -4.16396,-2.34995 -6.96198,-3.04414 -12.24949,-3.03911 -4.83408,0.005 -8.28684,0.67652 -11.3516,2.20911 -6.96089,3.48093 -10.99307,11.75386 -12.85674,26.37857 -0.90078,7.06858 -1.14806,13.76702 -1.29769,35.1518 l -0.11647,16.64584 h 21.96885 21.96884 v 6.67741 6.67741 h -21.94007 -21.94007 v 80.38716 c 0,51.72988 -0.0691,81.77438 -0.19375,84.27849 -0.57255,11.49938 -2.10533,20.25459 -5.13636,29.33885 -3.35224,10.04693 -7.64451,17.90634 -13.76546,25.20542 -3.56241,4.24807 -7.1723,7.28221 -13.0514,10.96977 -9.4906,5.9528 -20.24424,9.14662 -31.47923,9.34929 -2.09862,0.0379 -4.54106,-0.0126 -5.42766,-0.11189 z"
         id="path1695"
         sodipodi:nodetypes="sscsssssssscssscccccccsssssssssssscsssscssscccccccssssssss" /></g><path
       style="fill:none;stroke:#000000;stroke-width:18.8976;stroke-linecap:round;stroke-linejoin:round;stroke-dasharray:none;stroke-opacity:1"
       d="M 920,276.44109 741.11403,379.72095"
       id="path1801" /><path
       style="fill:none;stroke:#000000;stroke-width:18.8976;stroke-linecap:round;stroke-linejoin:round;stroke-dasharray:none;stroke-opacity:1"
       d="M 188.43614,228.88423 367.32211,332.16409"
       id="path1803" /><path
       style="fill:none;stroke:#000000;stroke-width:18.8976;stroke-linecap:round;stroke-linejoin:round;stroke-dasharray:none;stroke-opacity:1"
       d="M 512,983.11782 V 711.48353"
       id="path1805" /><rect
       style="fill:none;stroke:#000000;stroke-width:18.8976;stroke-linecap:round;stroke-linejoin:round;stroke-dasharray:none;stroke-opacity:1"
       id="rect1872"
       width="339.16217"
       height="136.50505"
       x="322.40466"
       y="1196.7705" /><g
       id="g1883"><path
         style="fill:none;stroke:#000000;stroke-width:18.8976;stroke-linecap:round;stroke-linejoin:round;stroke-dasharray:none;stroke-opacity:1"
         d="m 661.56683,1196.7705 v -80.2572"
         id="path1874" /><path
         style="fill:none;stroke:#000000;stroke-width:18.8976;stroke-linecap:round;stroke-linejoin:round;stroke-dasharray:none;stroke-opacity:1"
         d="M 812.36845,1265.023 661.56683,1116.5133"
         id="path1876" /><path
         style="fill:none;stroke:#000000;stroke-width:18.8976;stroke-linecap:round;stroke-linejoin:round;stroke-dasharray:none;stroke-opacity:1"
         d="m 812.36845,1265.023 -150.80162,148.5097 c 0,-80.2572 0,-80.2572 0,-80.2572"
         id="path1878" /></g></g></svg>
